<?xml version="1.0" encoding="utf-8" ?>
<svg baseProfile="tiny" height="512px" version="1.2" width="512px" xmlns="http://www.w3.org/2000/svg" xmlns:ev="http://www.w3.org/2001/xml-events" xmlns:xlink="http://www.w3.org/1999/xlink"><defs /><rect fill="#f4f1ea" height="100%" width="100%" x="0" y="0" /><path d="M130,130 C100,100 180,60 210,90 C240,120 210,180 180,170 C160,160 140,150 130,130 Z" fill="#18405c" /><circle cx="145" cy="120" fill="#f4f1ea" r="6" /><path d="M220,200 C250,230 180,270 150,240 C120,210 150,180 180,190 C200,200 215,190 220,200 Z" fill="#2c9a91" /><circle cx="205" cy="220" fill="#f4f1ea" r="6" /><path d="M270,170 Q280,165 290,170 T310,170" fill="none" stroke="#1f7287" stroke-width="5" /><path d="M270,185 Q280,180 290,185 T310,185" fill="none" stroke="#1f7287" stroke-width="5" /><path d="M270,200 Q280,195 290,200 T310,200" fill="none" stroke="#1f7287" stroke-width="5" /><circle cx="300" cy="90" fill="#2c9a91" r="7" /><circle cx="315" cy="105" fill="#2c9a91" r="4" /><circle cx="290" cy="120" fill="#2c9a91" r="5" /><path d="M320,130 Q310,110 330,100 Q350,110 340,130 Z" fill="#16544f" /><path d="M330,135 Q320,120 340,115 Q360,120 345,140 Z" fill="#16544f" /><path d="M325,145 Q315,130 335,125 Q355,130 340,150 Z" fill="#16544f" /><polygon fill="#f9b233" points="160,80 175,80 165,110 180,110 155,150 165,115 150,115" stroke="#d48806" stroke-width="1" /><text fill="#18394f" font-family="Arial" font-size="40px" font-weight="bold" x="70" y="320">EUTROPY</text><text fill="#18394f" font-family="Arial" font-size="18px" x="60" y="355">A PYTHON + NUMBA-BASED</text><text fill="#18394f" font-family="Arial" font-size="18px" x="50" y="375">EUTROPHICATION MODEL</text></svg>